:SAMPLES-PER-SECOND 30
:FULLY-SPECIFIED
:DEGREES
433
root  34.5612 39.7585 -30.9597 165.015 -77.6633 -165.839
RightUpLeg  7.54549 -9.84044 -3.2302
RightLeg  10.3061 -10.725 4.45196
RightFoot  -12.4246 -0.0405141 4.65118
RightToes  -5.8209e-011 0 -3.6325e-017
Spine  5.62141 1.76839 12.7589
Spine1  8.06673 3.88114 -6.17061
HEad  -10.1065 31.471 47.2019
LeftShoulder1  8.18525 -11.5584 -47.4189
LeftArm  -4.67018 24.6885 -20.8568
LeftForeArm  22.2413 -14.3047 -5.253
LeftHand  -0.244104 0.0205437 5.32207
RightShoulder  5.57986 8.82449 39.1653
RightArm  9.00165 -3.91206 30.8555
RightForeArm  2.3116 23.7517 4.93048
RightHand  -0.370556 -1.38962 -10.6451
LeftUpLeg  -23.6022 15.9967 -7.92688
LeftLeg  24.0895 1.35883 1.1764
LeftFoot  -3.04904 0.00280035 0.217682
LeftToes  1.76439e-010 -1.07097e-011 2.32476e-011
434
root  33.3079 39.6692 -31.6382 165.426 -78.0446 -166.08
RightUpLeg  10.7451 -9.36688 -2.96087
RightLeg  8.065 -11.1825 4.81599
RightFoot  -13.0194 -0.0124015 5.13372
RightToes  -5.8209e-011 0 -3.6325e-017
Spine  5.22766 2.12153 12.2742
Spine1  8.23289 4.20714 -6.40231
HEad  -9.62955 31.6737 47.0784
LeftShoulder1  8.03508 -11.4439 -46.8949
LeftArm  -6.92687 27.313 -20.8619
LeftForeArm  22.052 -11.4686 -5.36979
LeftHand  -0.244104 0.0205437 5.32207
RightShoulder  5.55403 8.78518 39.1029
RightArm  7.47684 -3.34233 30.2717
RightForeArm  3.14999 25.6725 5.34046
RightHand  -0.335229 -1.76155 -10.557
LeftUpLeg  -21.9411 15.3495 -8.69898
LeftLeg  9.88183 6.05332 -2.0641
LeftFoot  -2.31859 -0.0169426 0.389991
LeftToes  1.76439e-010 -1.07097e-011 2.32476e-011
435
root  31.942 39.4453 -32.29 165.182 -77.7358 -165.94
RightUpLeg  13.6636 -9.20813 -2.82096
RightLeg  7.39626 -10.5287 5.01934
RightFoot  -14.2215 0.0635027 6.32653
RightToes  -5.8209e-011 0 -3.6325e-017
Spine  5.15318 2.42423 12.021
Spine1  8.16087 4.579 -6.64736
HEad  -8.65913 32.1931 47.0617
LeftShoulder1  7.85809 -11.2721 -46.3813
LeftArm  -8.09473 30.2531 -21.0469
LeftForeArm  21.0851 -9.26084 -5.14635
LeftHand  -0.244104 0.0205437 5.32207
RightShoulder  5.56504 8.78514 39.1884
RightArm  6.01594 -2.95375 29.9984
RightForeArm  3.95613 26.8534 5.5711
RightHand  -0.327132 -1.83479 -10.5003
LeftUpLeg  -18.6104 -0.289223 -2.325
LeftLeg  -4.00338 25.7272 -9.23967
LeftFoot  -2.41706 -0.0430985 0.702016
LeftToes  1.76439e-010 -1.07097e-011 2.32476e-011
436
root  30.4376 39.0888 -32.9168 162.566 -77.372 -163.585
RightUpLeg  16.1392 -9.53193 -2.60786
RightLeg  8.71708 -9.23779 5.04447
RightFoot  -15.334 0.155225 7.45716
RightToes  -5.8209e-011 0 -3.6325e-017
Spine  4.91741 2.51898 12.1242
Spine1  8.01449 4.61743 -6.72321
HEad  -7.51375 33.0903 46.9554
LeftShoulder1  7.64601 -11.0554 -45.782
LeftArm  -8.59224 33.1485 -21.5342
LeftForeArm  20.5395 -7.73379 -4.76558
LeftHand  -0.244104 0.0205437 5.32207
RightShoulder  5.58421 8.77652 39.3675
RightArm  4.5707 -2.80662 30.1427
RightForeArm  4.2555 27.4156 5.68618
RightHand  -0.33608 -1.77996 -10.6375
LeftUpLeg  -18.6978 -0.0367473 -2.71068
LeftLeg  -7.72676 26.6944 -9.98978
LeftFoot  -4.29795 0.0520841 -0.378434
LeftToes  1.76439e-010 -1.07097e-011 2.32476e-011
437
root  28.8325 38.7775 -33.5284 161.567 -77.3787 -162.913
RightUpLeg  18.6751 -11.1603 -3.51956
RightLeg  10.5558 -6.63495 4.93366
RightFoot  -15.4216 0.20127 8.54225
RightToes  -5.8209e-011 0 -3.6325e-017
Spine  4.32968 2.47748 11.4026
Spine1  8.442 4.59497 -6.64374
HEad  -6.77788 34.7581 49.0958
LeftShoulder1  7.4197 -10.8703 -44.969
LeftArm  -8.75549 35.734 -22.3469
LeftForeArm  20.8303 -6.68818 -4.48087
LeftHand  -0.244104 0.0205437 5.32207
RightShoulder  5.59262 8.72549 39.6134
RightArm  3.04068 -3.38118 30.5834
RightForeArm  3.97533 27.7316 5.77533
RightHand  -0.342578 -1.81566 -10.9525
LeftUpLeg  -18.9346 -0.0623667 -3.04132
LeftLeg  -5.37246 26.9679 -9.05203
LeftFoot  -4.34534 -0.00331914 0.446056
LeftToes  1.76439e-010 -1.07097e-011 2.32476e-011
438
root  27.0816 38.4909 -34.1431 164.212 -76.8751 -166.19
RightUpLeg  21.5171 -15.7874 -7.18131
RightLeg  13.5185 0.529639 4.57039
RightFoot  -15.1021 0.269403 11.2294
RightToes  -5.8209e-011 0 -3.6325e-017
Spine  3.3729 2.88652 9.50433
Spine1  9.20231 4.92759 -6.26766
HEad  -2.58012 21.5474 24.6684
LeftShoulder1  7.23138 -10.7178 -44.2669
LeftArm  -8.51947 38.0362 -22.9927
LeftForeArm  21.3734 -5.98593 -4.41431
LeftHand  -0.244104 0.0205437 5.32207
RightShoulder  5.64718 8.70842 40.0971
RightArm  2.02174 -4.89335 30.9717
RightForeArm  3.43975 27.6226 5.77785
RightHand  -0.371666 -1.64002 -11.359
LeftUpLeg  -19.2151 0.879317 -4.10667
LeftLeg  0.621818 26.6711 -6.69463
LeftFoot  -1.82555 -0.44543 5.26562
LeftToes  1.76439e-010 -1.07097e-011 2.32476e-011
439
root  25.2639 38.3166 -34.7441 170.262 -76.0489 -173.127
RightUpLeg  23.2378 -20.6534 -12.5153
RightLeg  18.7706 9.24248 4.11008
RightFoot  -12.7927 0.0930371 15.8026
RightToes  -5.8209e-011 0 -3.6325e-017
Spine  2.43373 3.45574 6.21339
Spine1  9.4608 5.20238 -5.45463
HEad  7.01649 -9.53247 -37.5205
LeftShoulder1  7.11368 -10.5262 -44.1339
LeftArm  -7.95825 39.8717 -23.0283
LeftForeArm  21.795 -5.42849 -4.4682
LeftHand  -0.244104 0.0205437 5.32207
RightShoulder  5.7557 8.74404 40.8071
RightArm  2.40695 -6.76641 31.4276
RightForeArm  2.91281 26.0923 5.4218
RightHand  -0.446847 -0.977272 -11.7082
LeftUpLeg  -19.2911 4.16062 -6.81243
LeftLeg  7.01335 24.4677 -3.41347
LeftFoot  1.17377 -1.36446 12.3691
LeftToes  1.76439e-010 -1.07097e-011 2.32476e-011
440
root  23.5414 38.3769 -35.2682 177.348 -76.0773 179.027
RightUpLeg  20.4849 -17.3577 -13.954
RightLeg  27.3216 8.32284 4.23552
RightFoot  -5.01306 -1.08025 18.9826
RightToes  -5.8209e-011 0 -3.6325e-017
Spine  2.01153 3.30002 2.40995
Spine1  8.77286 4.73219 -4.58668
HEad  -1.2485 37.4036 59.0686
LeftShoulder1  7.08782 -10.363 -44.5058
LeftArm  -7.51848 40.5025 -22.773
LeftForeArm  22.3302 -4.79716 -4.4988
LeftHand  -0.244104 0.0205437 5.32207
RightShoulder  5.81262 8.73089 41.2918
RightArm  3.2218 -8.25884 32.6223
RightForeArm  3.10866 22.5725 4.90635
RightHand  -0.502662 -0.400753 -11.7091
LeftUpLeg  -18.6071 8.4091 -10.4831
LeftLeg  11.2688 20.5758 -0.551528
LeftFoot  1.82584 -1.99303 17.1155
LeftToes  1.76439e-010 -1.07097e-011 2.32476e-011
